<?xml version="1.0" encoding="UTF-8" standalone="no"?>
<!-- Created with Inkscape (http://www.inkscape.org/) -->

<svg
   xmlns:dc="http://purl.org/dc/elements/1.1/"
   xmlns:cc="http://creativecommons.org/ns#"
   xmlns:rdf="http://www.w3.org/1999/02/22-rdf-syntax-ns#"
   xmlns:svg="http://www.w3.org/2000/svg"
   xmlns="http://www.w3.org/2000/svg"
   xmlns:xlink="http://www.w3.org/1999/xlink"
   xmlns:sodipodi="http://sodipodi.sourceforge.net/DTD/sodipodi-0.dtd"
   xmlns:inkscape="http://www.inkscape.org/namespaces/inkscape"
   width="1000"
   height="1000"
   viewBox="0 0 1000 1000"
   id="svg5048"
   version="1.1"
   inkscape:version="0.91 r"
   sodipodi:docname="icon.svg">
  <defs
     id="defs5050">
    <linearGradient
       inkscape:collect="always"
       id="linearGradient6312">
      <stop
         style="stop-color:#ffffff;stop-opacity:1"
         offset="0"
         id="stop6314" />
      <stop
         style="stop-color:#aaaaaa;stop-opacity:1"
         offset="1"
         id="stop6316" />
    </linearGradient>
    <radialGradient
       inkscape:collect="always"
       xlink:href="#linearGradient4905"
       id="radialGradient4915"
       cx="1346.2466"
       cy="772.84589"
       fx="1346.2466"
       fy="772.84589"
       r="190.38475"
       gradientTransform="matrix(1.5900762,0.16804651,-0.02942256,0.27839977,-1808.7917,32.378028)"
       gradientUnits="userSpaceOnUse" />
    <linearGradient
       inkscape:collect="always"
       id="linearGradient4905">
      <stop
         style="stop-color:#028ad4;stop-opacity:0.36809817"
         offset="0"
         id="stop4907" />
      <stop
         style="stop-color:#028ad4;stop-opacity:1"
         offset="1"
         id="stop4909" />
    </linearGradient>
    <linearGradient
       inkscape:collect="always"
       xlink:href="#linearGradient4954"
       id="linearGradient4960"
       x1="1291.4503"
       y1="625.76215"
       x2="1531.8264"
       y2="625.04785"
       gradientUnits="userSpaceOnUse"
       gradientTransform="matrix(0.93745103,0.34811716,-0.34811716,0.93745103,-714.748,-697.24491)" />
    <linearGradient
       inkscape:collect="always"
       id="linearGradient4954">
      <stop
         style="stop-color:#ff6600;stop-opacity:1;"
         offset="0"
         id="stop4956" />
      <stop
         id="stop4962"
         offset="0.35448593"
         style="stop-color:#ff6600;stop-opacity:0.49803922;" />
      <stop
         style="stop-color:#ff6600;stop-opacity:1"
         offset="1"
         id="stop4958" />
    </linearGradient>
    <linearGradient
       gradientTransform="matrix(0.93745103,0.34811716,-0.34811716,0.93745103,-714.748,-697.24491)"
       inkscape:collect="always"
       xlink:href="#linearGradient4972"
       id="linearGradient4970"
       x1="1354.9188"
       y1="445.36023"
       x2="1476.3284"
       y2="562.6062"
       gradientUnits="userSpaceOnUse" />
    <linearGradient
       id="linearGradient4972"
       inkscape:collect="always">
      <stop
         id="stop4974"
         offset="0"
         style="stop-color:#ff6600;stop-opacity:1;" />
      <stop
         style="stop-color:#ff6600;stop-opacity:0.49803922;"
         offset="0.36374027"
         id="stop4976" />
      <stop
         id="stop4978"
         offset="1"
         style="stop-color:#ff6600;stop-opacity:1" />
    </linearGradient>
    <radialGradient
       inkscape:collect="always"
       xlink:href="#linearGradient6312"
       id="radialGradient6318"
       cx="196.79591"
       cy="380.90149"
       fx="196.79591"
       fy="380.90149"
       r="500"
       gradientUnits="userSpaceOnUse"
       gradientTransform="matrix(2.1190026,1.3707507,-0.56877388,0.87925078,-6.9325713,-333.53038)" />
  </defs>
  <sodipodi:namedview
     id="base"
     pagecolor="#ffffff"
     bordercolor="#666666"
     borderopacity="1.0"
     inkscape:pageopacity="0.0"
     inkscape:pageshadow="2"
     inkscape:zoom="0.38183766"
     inkscape:cx="696.40621"
     inkscape:cy="432.39163"
     inkscape:document-units="px"
     inkscape:current-layer="layer3"
     showgrid="false"
     inkscape:window-width="1366"
     inkscape:window-height="718"
     inkscape:window-x="0"
     inkscape:window-y="25"
     inkscape:window-maximized="1"
     showguides="true"
     units="px" />
  <metadata
     id="metadata5053">
    <rdf:RDF>
      <cc:Work
         rdf:about="">
        <dc:format>image/svg+xml</dc:format>
        <dc:type
           rdf:resource="http://purl.org/dc/dcmitype/StillImage" />
        <dc:title></dc:title>
      </cc:Work>
    </rdf:RDF>
  </metadata>
  <g
     inkscape:groupmode="layer"
     id="layer4"
     inkscape:label="Background">
    <g
       style="font-style:normal;font-weight:normal;font-size:medium;line-height:125%;font-family:Sans;letter-spacing:0px;word-spacing:0px;fill:#000000;fill-opacity:1;stroke:none;stroke-width:1px;stroke-linecap:butt;stroke-linejoin:miter;stroke-opacity:1"
       id="g5920"
       transform="matrix(8.7198,0,0,9.4428,227.83491,537.40487)" />
    <rect
       style="font-style:normal;font-weight:normal;font-size:medium;line-height:125%;font-family:Sans;letter-spacing:0px;word-spacing:0px;opacity:1;fill:url(#radialGradient6318);fill-opacity:1;stroke:none;stroke-width:5;stroke-linecap:round;stroke-linejoin:miter;stroke-miterlimit:4;stroke-dasharray:none;stroke-opacity:1"
       id="rect5996"
       width="1000"
       height="1000"
       x="0"
       y="-2.7099611e-07"
       ry="150"
       rx="150" />
  </g>
  <g
     inkscape:label="Text"
     inkscape:groupmode="layer"
     id="layer1"
     transform="translate(0,-52.362161)"
     style="display:inline">
    <g
       style="font-style:normal;font-weight:normal;font-size:66.68521881px;line-height:125%;font-family:Sans;letter-spacing:0px;word-spacing:0px;fill:#000000;fill-opacity:1;stroke:none;stroke-width:1px;stroke-linecap:butt;stroke-linejoin:miter;stroke-opacity:1"
       id="g5968"
       transform="matrix(1.9507592,0,0,1.9507592,-202.27353,-290.23512)">
      <g
         id="g5348"
         transform="matrix(8.7198,0,0,9.4428,172.35032,506.41103)">
        <path
           style="fill:#3ca0d6;fill-opacity:1"
           d="m 195.07812,506.41211 c -3.86391,0 -7.22836,0.55308 -10.09374,1.66016 -2.84368,1.08537 -5.19958,2.647 -7.06641,4.6875 -1.86684,2.01879 -3.26775,4.47228 -4.20117,7.35937 -0.91172,2.88709 -1.36719,6.1214 -1.36719,9.70313 0,3.45148 0.45547,6.63221 1.36719,9.54101 0.93342,2.90879 2.34583,5.42736 4.23437,7.55469 1.91026,2.10562 4.31972,3.75531 7.22852,4.94922 2.90879,1.1722 6.34785,1.75781 10.32031,1.75781 3.03904,0 5.6782,-0.36937 7.91406,-1.10742 2.25758,-0.75976 4.20007,-1.74727 5.82813,-2.96289 1.62805,-1.21562 2.98494,-2.61653 4.07031,-4.20117 1.08537,-1.58465 1.96379,-3.20181 2.63672,-4.85157 l -8.36914,-3.1582 c -0.41244,1.06367 -0.94253,2.11624 -1.59375,3.1582 -0.62952,1.04196 -1.43332,1.9759 -2.41016,2.80078 -0.95512,0.82489 -2.09577,1.49856 -3.41992,2.01954 -1.30245,0.49927 -2.85453,0.74804 -4.65625,0.74804 -2.38781,0 -4.43746,-0.4019 -6.15234,-1.20508 -1.69318,-0.80317 -3.0826,-1.92082 -4.16797,-3.35351 -1.08538,-1.43269 -1.88919,-3.13595 -2.41016,-5.11133 -0.49927,-1.99708 -0.75,-4.1903 -0.75,-6.57812 0,-2.40953 0.25073,-4.57976 0.75,-6.51172 0.52097,-1.95367 1.31329,-3.6244 2.37695,-5.01367 1.08538,-1.38929 2.4633,-2.45336 4.13477,-3.19141 1.67147,-0.75976 3.66949,-1.14063 5.99219,-1.14063 1.64976,0 3.12529,0.21819 4.42773,0.65235 1.30245,0.41244 2.43159,0.96551 3.38672,1.66015 0.97683,0.69464 1.77869,1.49845 2.4082,2.41016 0.62952,0.89001 1.09649,1.82199 1.40039,2.79883 l 8.4668,-2.31055 c -0.60781,-1.86684 -1.45369,-3.57205 -2.53906,-5.11328 -1.06367,-1.56293 -2.42055,-2.90832 -4.07031,-4.03711 -1.62806,-1.15049 -3.57251,-2.0404 -5.83008,-2.66992 -2.23586,-0.62951 -4.85008,-0.94336 -7.84571,-0.94336 z"
           id="path5336"
           inkscape:connector-curvature="0"
           transform="matrix(0.11468153,0,0,0.10590079,-19.765398,-53.629329)" />
        <path
           style="fill:#ffffff;fill-opacity:1"
           d="m 175.625,515.85352 c -0.76904,1.29858 -1.40762,2.71731 -1.9082,4.26562 -0.91172,2.88709 -1.36719,6.1214 -1.36719,9.70313 0,3.45148 0.45547,6.63221 1.36719,9.54101 0.561,1.74824 1.29906,3.35241 2.20508,4.81836 l 12.17968,0 c -1.1409,-0.7167 -2.11602,-1.6062 -2.92187,-2.66992 -1.08538,-1.43269 -1.88919,-3.13595 -2.41016,-5.11133 -0.49927,-1.99708 -0.75,-4.1903 -0.75,-6.57812 0,-2.40953 0.25073,-4.57976 0.75,-6.51172 0.52097,-1.95367 1.31329,-3.6244 2.37695,-5.01367 0.76439,-0.97843 1.68124,-1.78794 2.73633,-2.44336 l -12.25781,0 z m 26.82031,0 c 0.2206,0.13588 0.43793,0.27499 0.64258,0.42382 0.97683,0.69464 1.77869,1.49845 2.4082,2.41016 0.62952,0.89001 1.09649,1.82199 1.40039,2.79883 l 8.4668,-2.31055 c -0.38221,-1.17395 -0.87034,-2.27708 -1.4414,-3.32226 l -11.47657,0 z m 5.13477,21.49023 c -0.41244,1.06367 -0.94253,2.11624 -1.59375,3.1582 -0.62952,1.04196 -1.43332,1.9759 -2.41016,2.80078 -0.36835,0.31813 -0.77402,0.60599 -1.19726,0.87891 l 11.69531,0 c 0.74248,-1.20763 1.36729,-2.43499 1.875,-3.67969 l -8.36914,-3.1582 z"
           transform="matrix(0.11468153,0,0,0.10590079,-19.765398,-53.629329)"
           id="path5338"
           inkscape:connector-curvature="0" />
        <path
           style="fill:#cd0000;fill-opacity:1"
           d="m 172.63086,525.29688 c -0.17745,1.44496 -0.28125,2.94522 -0.28125,4.52539 0,1.70567 0.11328,3.34482 0.33594,4.91796 l 9.73828,0 c -0.26648,-1.53591 -0.40235,-3.1735 -0.40235,-4.91796 0,-1.61974 0.12205,-3.12146 0.34766,-4.52539 l -9.73828,0 z"
           transform="matrix(0.11468153,0,0,0.10590079,-19.765398,-53.629329)"
           id="path5340"
           inkscape:connector-curvature="0" />
      </g>
      <path
         style="font-style:normal;font-variant:normal;font-weight:bold;font-stretch:normal;font-size:66.68521881px;line-height:125%;font-family:'Liberation Sans';-inkscape-font-specification:'Liberation Sans, Bold';text-align:start;writing-mode:lr-tb;text-anchor:start;fill:#3ca0d6;fill-opacity:1"
         d="m 424.79297,666.06055 c -2.49842,0 -4.59327,0.38035 -6.28711,1.14257 -1.69383,0.71989 -3.15478,1.77837 -4.38281,3.17579 -1.1857,1.35507 -2.22402,3.02732 -3.11328,5.01757 -0.88926,1.94792 -1.7787,4.17151 -2.66797,6.66993 l -0.25391,0 c 0,-0.88926 -0.0423,-2.05438 -0.12695,-3.49414 -0.0424,-1.48211 -0.10675,-2.96321 -0.19141,-4.44532 -0.0847,-1.48211 -0.16924,-2.83837 -0.25391,-4.0664 -0.0847,-1.27039 -0.16924,-2.15787 -0.2539,-2.66602 l -17.02344,0 c 0.0847,0.55049 0.14901,1.43797 0.19141,2.66602 0.0423,1.18568 0.0845,2.54195 0.12695,4.0664 0.0847,1.48211 0.12695,3.04774 0.12695,4.69922 0.0424,1.6515 0.0645,3.21906 0.0645,4.70117 l 0,52.59375 17.84765,0 0,-33.72851 c 0,-7.07178 1.22754,-12.40645 3.6836,-16.00586 2.49841,-3.59941 5.97164,-5.40039 10.41797,-5.40039 1.60914,0 2.98556,0.10662 4.1289,0.31836 1.1857,0.16938 2.3508,0.38068 3.49414,0.63476 l 0,-14.92773 c -0.5505,-0.25408 -1.35541,-0.46539 -2.41406,-0.63477 -1.01629,-0.21173 -2.05463,-0.3164 -3.11328,-0.3164 z m 43.82812,0 c -4.7004,0 -8.87191,0.48697 -12.51367,1.46093 -3.5994,0.93161 -6.62596,2.30608 -9.08203,4.12696 -2.45607,1.77853 -4.31947,3.95986 -5.58984,6.54297 -1.27039,2.54076 -1.90625,5.44248 -1.90625,8.70312 0,3.5994 0.67812,6.5837 2.0332,8.95508 1.35508,2.32902 3.13395,4.2568 5.33594,5.78125 2.20199,1.52445 4.69931,2.72987 7.49414,3.61914 2.79484,0.88926 5.6322,1.65192 8.51172,2.28711 2.75249,0.63519 5.33628,1.2067 7.75,1.71484 2.45607,0.46581 4.57303,1.03731 6.35156,1.71485 1.82088,0.63519 3.23957,1.48236 4.25586,2.54101 1.05865,1.0163 1.58789,2.41483 1.58789,4.19336 0,1.5668 -0.3602,2.87885 -1.08008,3.9375 -0.71988,1.01631 -1.73611,1.82122 -3.04883,2.41406 -1.27038,0.5505 -2.79374,0.95296 -4.57226,1.20704 -1.73619,0.21172 -3.6217,0.3164 -5.6543,0.3164 -2.24435,0 -4.25468,-0.10468 -6.0332,-0.3164 -1.73619,-0.21174 -3.26149,-0.6363 -4.57422,-1.27149 -1.31272,-0.63518 -2.41348,-1.54478 -3.30274,-2.73047 -0.88927,-1.18569 -1.58755,-2.73115 -2.0957,-4.63672 l -15.68945,2.34961 c 0.88926,3.43004 2.22342,6.30965 4.00195,8.63868 1.77853,2.32902 3.98002,4.23468 6.60547,5.71679 2.66779,1.43977 5.75873,2.47809 9.27344,3.11328 3.51472,0.6352 7.45281,0.95117 11.81445,0.95117 4.86978,0 9.21035,-0.48697 13.02148,-1.46093 3.81114,-1.01631 7.02885,-2.43498 9.6543,-4.25586 2.62545,-1.86322 4.61563,-4.10697 5.9707,-6.73242 1.39742,-2.62545 2.09766,-5.5896 2.09766,-8.89258 0,-3.85348 -0.7425,-7.02893 -2.22461,-9.52735 -1.43976,-2.49841 -3.36557,-4.53085 -5.77929,-6.09765 -2.37137,-1.60914 -5.10211,-2.85878 -8.19336,-3.74805 -3.04892,-0.9316 -6.16195,-1.73652 -9.3379,-2.41406 -2.5831,-0.63519 -4.97574,-1.16443 -7.17773,-1.58789 -2.15965,-0.4658 -4.0432,-0.99504 -5.65234,-1.58789 -1.5668,-0.63518 -2.79628,-1.41799 -3.68555,-2.34961 -0.84692,-0.93161 -1.26953,-2.18124 -1.26953,-3.74805 0,-2.54076 1.05848,-4.3398 3.17578,-5.39844 2.11729,-1.10099 5.29274,-1.65234 9.52734,-1.65234 1.77854,0 3.40852,0.12679 4.89063,0.38086 1.48211,0.21173 2.774,0.63629 3.875,1.27148 1.14334,0.63518 2.09715,1.50252 2.85937,2.60352 0.76223,1.05865 1.29147,2.41295 1.58789,4.06445 l 15.81641,-1.65039 c -0.67754,-3.30298 -1.8849,-6.11823 -3.62109,-8.44726 -1.69383,-2.32903 -3.81081,-4.23469 -6.35157,-5.7168 -2.54076,-1.52445 -5.42037,-2.62715 -8.63867,-3.30469 -3.21828,-0.71988 -6.69152,-1.07812 -10.41797,-1.07812 z m -206.18164,0.0625 c -5.84374,0 -10.94697,0.88943 -15.30859,2.66797 -4.36164,1.77853 -7.9818,4.25568 -10.86133,7.43164 -2.87953,3.17594 -5.03876,6.945 -6.47851,11.30664 -1.39742,4.31929 -2.09766,9.04021 -2.09766,14.16406 0,5.29325 0.7425,10.14289 2.22461,14.54687 1.48211,4.36163 3.66149,8.10858 6.54101,11.24219 2.92186,3.1336 6.52188,5.5685 10.79883,7.30469 4.27694,1.73619 9.2111,2.60351 14.80078,2.60351 5.80139,10e-6 10.88251,-0.86732 15.24414,-2.60351 4.36164,-1.77853 8.00391,-4.23359 10.92579,-7.36719 2.92186,-3.17595 5.10125,-6.945 6.54101,-11.30664 1.48211,-4.36162 2.22461,-9.16901 2.22461,-14.41992 0,-5.16621 -0.65798,-9.90924 -1.9707,-14.22852 -1.27039,-4.36163 -3.30283,-8.10859 -6.09766,-11.24218 -2.75249,-3.17596 -6.3083,-5.65311 -10.66992,-7.43164 -4.36164,-1.77854 -9.63389,-2.66797 -15.81641,-2.66797 z m 279.67383,0 c -4.31928,0 -8.42643,0.61375 -12.32226,1.84179 -3.89583,1.22803 -7.34694,3.24032 -10.35352,6.03516 -2.96422,2.75248 -5.33671,6.37266 -7.11523,10.86133 -1.73619,4.48867 -2.60352,10.01449 -2.60352,16.57812 0,6.05547 0.74055,11.34985 2.22266,15.88086 1.48211,4.48869 3.62117,8.23563 6.41601,11.24219 2.79483,2.96422 6.16143,5.18781 10.09961,6.66992 3.98051,1.43977 8.44786,2.1582 13.40235,2.1582 4.86978,0 8.99709,-0.59164 12.38476,-1.77734 3.43002,-1.22803 6.28949,-2.75334 8.57617,-4.57422 2.2867,-1.86322 4.10783,-3.89566 5.46289,-6.09765 1.39742,-2.20199 2.47606,-4.2767 3.23828,-6.22461 l -16.83203,-1.46094 c -0.84691,2.79484 -2.26559,4.86953 -4.25586,6.22461 -1.99025,1.31272 -4.55193,1.96875 -7.68554,1.96875 -2.58311,0 -4.78459,-0.50713 -6.60547,-1.52344 -1.82087,-1.05865 -3.30391,-2.47734 -4.44727,-4.25586 -1.14334,-1.82088 -1.96841,-3.95994 -2.47656,-6.41601 -0.50815,-2.49842 -0.76172,-5.18689 -0.76172,-8.06641 l 44.08203,0 0,-0.50781 c 0,-5.71672 -0.5715,-10.92656 -1.71484,-15.62696 -1.14334,-4.74275 -2.94432,-8.80763 -5.40039,-12.19531 -2.45606,-3.38767 -5.6094,-6.01178 -9.46289,-7.875 -3.81114,-1.90558 -8.42737,-2.85937 -13.84766,-2.85937 z m -231.9082,1.27148 0,43.63672 c 0,3.72644 0.40246,7.19967 1.20703,10.41797 0.80457,3.2183 2.09647,6.01144 3.875,8.38281 1.82088,2.32903 4.17125,4.17227 7.05078,5.52735 2.87953,1.35507 6.37291,2.03124 10.48047,2.03124 5.03916,0 9.37973,-1.18525 13.02148,-3.55664 3.6841,-2.37136 6.71067,-6.16058 9.08204,-11.36914 l 0.31835,0 c 0,0.93161 0.0201,2.07462 0.0625,3.42969 0.0847,1.35508 0.14901,2.70939 0.19141,4.06445 0.0847,1.35508 0.16924,2.60471 0.25391,3.74805 0.12698,1.101 0.21151,1.90592 0.2539,2.41406 l 17.02344,0 c -0.0424,-0.55049 -0.10674,-1.37556 -0.19141,-2.47656 -0.0424,-1.14334 -0.10479,-2.41508 -0.18945,-3.8125 -0.0423,-1.43976 -0.0846,-2.94297 -0.12695,-4.50976 l 0,-4.57227 0,-53.35547 -17.84961,0 0,36.83985 c 0,2.92187 -0.3602,5.61034 -1.08008,8.0664 -0.67754,2.41373 -1.6515,4.51053 -2.92187,6.28906 -1.27039,1.73618 -2.79374,3.09049 -4.57227,4.06446 -1.73618,0.93161 -3.6841,1.39843 -5.84375,1.39843 -2.24434,0 -4.15,-0.44471 -5.7168,-1.33398 -1.52445,-0.88926 -2.77408,-2.1168 -3.74804,-3.68359 -0.97397,-1.60916 -1.67225,-3.51481 -2.09571,-5.7168 -0.42345,-2.24434 -0.63476,-4.70135 -0.63476,-7.36914 l 0,-38.55469 -17.84961,0 z m 231.6543,9.9707 c 3.93816,0 7.07135,1.39854 9.40039,4.19336 2.32902,2.7525 3.66318,6.9019 4.00195,12.44922 l -26.67774,0 c 0.0847,-2.96422 0.48715,-5.50379 1.20704,-7.62109 0.71988,-2.1173 1.65158,-3.83377 2.79492,-5.14649 1.18568,-1.35507 2.56014,-2.32902 4.12695,-2.92187 1.60914,-0.63518 3.32561,-0.95313 5.14649,-0.95313 z m -279.16602,1.01758 c 5.08151,0 8.95524,1.84129 11.62305,5.52539 2.66779,3.6841 4.00195,9.61239 4.00195,17.78516 0,4.10756 -0.3602,7.6432 -1.08008,10.60742 -0.71988,2.96422 -1.77836,5.39911 -3.17578,7.30469 -1.39742,1.90557 -3.13404,3.32425 -5.20898,4.25586 -2.03262,0.88927 -4.36088,1.33398 -6.98633,1.33398 -2.28668,0 -4.3835,-0.44471 -6.28907,-1.33398 -1.90556,-0.93161 -3.53554,-2.35029 -4.89062,-4.25586 -1.35508,-1.90558 -2.41355,-4.34047 -3.17578,-7.30469 -0.71988,-2.96422 -1.08008,-6.49986 -1.08008,-10.60742 0,-8.08807 1.39852,-13.99426 4.19336,-17.7207 2.79484,-3.72646 6.81746,-5.58985 12.06836,-5.58985 z m 149.65039,126.08399 0,94.26367 17.84961,0 0,-94.26367 -17.84961,0 z m 188.01563,0 0,94.26367 17.8496,0 0,-94.26367 -17.8496,0 z m 116.17578,9.40234 -5.58985,16.13281 -9.58984,0 0,12.06836 8.70117,0 0,40.52539 c 0,5.80139 1.41869,10.14196 4.25586,13.02149 2.83718,2.83718 6.88191,4.25586 12.13281,4.25586 2.92188,0 5.61034,-0.19116 8.06641,-0.57227 2.45606,-0.33877 4.78434,-0.86801 6.98633,-1.58789 l 0,-11.05273 c -1.101,0.25408 -2.09512,0.46734 -2.98438,0.63672 -0.88927,0.16939 -1.88533,0.2539 -2.98633,0.2539 -2.66779,0 -4.63587,-0.78475 -5.90625,-2.35156 -1.27038,-1.60914 -1.90625,-4.08631 -1.90625,-7.43164 l 0,-35.69727 13.02149,0 0,-12.06836 -13.02149,0 0,-16.13281 -11.17968,0 z m 149.33398,14.79883 c -2.49841,0 -4.59522,0.3823 -6.28906,1.14453 -1.69383,0.71988 -3.15477,1.77837 -4.38281,3.17578 -1.18569,1.35508 -2.22207,3.02732 -3.11133,5.01758 -0.88928,1.94792 -1.77871,4.17152 -2.66797,6.66992 l -0.25391,0 c 0,-0.88926 -0.0423,-2.05438 -0.12695,-3.49414 -0.0424,-1.48211 -0.10674,-2.96516 -0.19141,-4.44726 -0.0847,-1.48211 -0.16924,-2.83643 -0.2539,-4.06446 -0.0847,-1.27038 -0.16925,-2.15982 -0.25391,-2.66797 l -17.02344,0 c 0.0847,0.55051 0.14901,1.43994 0.19141,2.66797 0.0423,1.18569 0.0846,2.54 0.12695,4.06446 0.0847,1.4821 0.12696,3.04967 0.12696,4.70117 0.0424,1.65148 0.0625,3.21906 0.0625,4.70117 l 0,52.59375 17.84961,0 0,-33.72852 c 0,-7.07177 1.22753,-12.4084 3.68359,-16.00781 2.49841,-3.5994 5.97164,-5.39844 10.41797,-5.39844 1.60914,0 2.98556,0.10469 4.1289,0.31641 1.18569,0.16939 2.34884,0.38265 3.49219,0.63672 l 0,-14.92774 c -0.5505,-0.25406 -1.35541,-0.46537 -2.41406,-0.63476 -1.01631,-0.21172 -2.05269,-0.31836 -3.11133,-0.31836 z m -498.56055,0.0645 c -4.7004,0 -8.80754,0.50713 -12.32226,1.52344 -3.47237,0.97395 -6.41637,2.37248 -8.83008,4.19336 -2.37138,1.82088 -4.23478,3.9801 -5.58984,6.47851 -1.35508,2.45606 -2.28677,5.1868 -2.79493,8.19336 l 18.61133,0.88868 c 0.21174,-1.90557 0.57193,-3.47119 1.08008,-4.69922 0.55049,-1.27039 1.24878,-2.26645 2.0957,-2.98633 0.84692,-0.76223 1.84299,-1.29147 2.98633,-1.58789 1.18569,-0.29641 2.51985,-0.44336 4.00196,-0.44336 1.60915,0 3.02783,0.23146 4.25585,0.69726 1.27038,0.42346 2.32886,1.16596 3.17579,2.22461 0.84691,1.05865 1.48083,2.43508 1.90429,4.12891 0.4658,1.6515 0.69922,3.72621 0.69922,6.22461 l 0,3.49219 -14.79883,0.2539 c -3.72644,0.0424 -7.24193,0.46692 -10.54492,1.27149 -3.30299,0.76224 -6.1826,2.01187 -8.63867,3.74804 -2.45606,1.69385 -4.40399,3.9376 -5.84375,6.73243 -1.39742,2.75249 -2.0957,6.16135 -2.0957,10.22656 0,3.30299 0.48697,6.24502 1.46093,8.82812 0.97395,2.58311 2.37053,4.76445 4.19141,6.54297 1.82088,1.73619 4.02432,3.07034 6.60742,4.00196 2.62545,0.88926 5.58959,1.33398 8.89258,1.33398 5.29324,0 9.78074,-1.18527 13.46484,-3.55664 3.72645,-2.37138 6.77511,-5.69572 9.14649,-9.97266 l 0.38086,0 c 0.42346,4.27694 1.6952,7.51676 3.8125,9.71875 2.15964,2.20199 5.48398,3.30274 9.97265,3.30274 1.27038,0 2.37112,-0.0423 3.30274,-0.12696 0.97396,-0.0847 1.88355,-0.1913 2.73047,-0.31835 0.84691,-0.12704 1.6941,-0.29608 2.54101,-0.50782 0.84693,-0.21172 1.80073,-0.44514 2.85938,-0.69922 l 0,-9.65429 c -1.27039,0.25406 -2.58439,0.38086 -3.93946,0.38086 -1.18569,0 -2.15964,-0.21131 -2.92187,-0.63477 -0.71988,-0.4658 -1.29139,-1.12183 -1.71484,-1.96875 -0.38112,-0.88927 -0.6568,-1.96986 -0.82618,-3.24023 -0.12706,-1.27039 -0.18945,-2.70922 -0.18945,-4.31836 l 0,-25.02735 c 0,-4.02287 -0.61377,-7.55851 -1.8418,-10.60742 -1.22803,-3.04891 -3.0069,-5.61059 -5.33593,-7.68555 -2.32903,-2.1173 -5.16639,-3.70503 -8.51172,-4.76367 -3.34533,-1.05865 -7.15666,-1.58789 -11.4336,-1.58789 z m 110.01563,0 c -5.20855,0 -9.86705,0.80297 -13.97461,2.41211 -4.06521,1.60914 -7.49618,3.95952 -10.29102,7.05078 -2.79482,3.04891 -4.93195,6.81797 -6.41406,11.30664 -1.48211,4.44633 -2.22461,9.52743 -2.22461,15.24414 0,5.2509 0.67814,10.0583 2.0332,14.41993 1.35508,4.31929 3.38752,8.02398 6.09766,11.11523 2.71014,3.09126 6.09885,5.4839 10.16406,7.17773 4.10756,1.69385 8.89284,2.54102 14.35547,2.54102 4.70041,0 8.86997,-0.65602 12.51172,-1.96875 3.64176,-1.35506 6.73269,-3.13395 9.27344,-5.33594 2.5831,-2.24433 4.6175,-4.80602 6.09961,-7.68554 1.52445,-2.92188 2.4984,-5.97055 2.92187,-9.14649 l -17.91406,-0.82617 c -0.55049,4.23459 -1.96723,7.43215 -4.25391,9.5918 -2.28668,2.1173 -5.12403,3.17578 -8.51171,3.17578 -9.35846,0 -14.03907,-7.91847 -14.03907,-23.75586 0,-7.49523 1.10075,-13.21221 3.30274,-17.15039 2.20199,-3.93817 5.69732,-5.90821 10.48242,-5.90821 3.72644,0 6.60411,1.05848 8.63672,3.17579 2.0326,2.07494 3.30435,4.87004 3.8125,8.38476 l 17.97461,-0.88867 c -0.59285,-3.2183 -1.67149,-6.22471 -3.23828,-9.01953 -1.52446,-2.79484 -3.53674,-5.20959 -6.03516,-7.24219 -2.49842,-2.07496 -5.48271,-3.70494 -8.95508,-4.89062 -3.43002,-1.18569 -7.36812,-1.77735 -11.81445,-1.77735 z m 186.49023,0 c -4.7004,0 -8.80754,0.50713 -12.32226,1.52344 -3.47237,0.97395 -6.41441,2.37248 -8.82813,4.19336 -2.37138,1.82088 -4.23477,3.9801 -5.58984,6.47851 -1.35506,2.45606 -2.28676,5.1868 -2.79492,8.19336 l 18.61132,0.88868 c 0.21173,-1.90557 0.56997,-3.47119 1.07813,-4.69922 0.55049,-1.27039 1.25073,-2.26645 2.09766,-2.98633 0.84691,-0.76223 1.84103,-1.29147 2.98437,-1.58789 1.18569,-0.29641 2.51985,-0.44336 4.00195,-0.44336 1.60916,0 3.02783,0.23146 4.25586,0.69726 1.27038,0.42346 2.32886,1.16596 3.17579,2.22461 0.84691,1.05865 1.48279,2.43508 1.90624,4.12891 0.46581,1.6515 0.69922,3.72621 0.69922,6.22461 l 0,3.49219 -14.80078,0.2539 c -3.72644,0.0424 -7.24193,0.46692 -10.54492,1.27149 -3.30299,0.76224 -6.1826,2.01187 -8.63867,3.74804 -2.45607,1.69385 -4.404,3.9376 -5.84375,6.73243 -1.39742,2.75249 -2.0957,6.16135 -2.0957,10.22656 0,3.30299 0.48698,6.24502 1.46093,8.82812 0.97397,2.58311 2.37248,4.76445 4.19336,6.54297 1.82088,1.73619 4.02237,3.07034 6.60547,4.00196 2.62545,0.88926 5.58959,1.33398 8.89258,1.33398 5.29324,0 9.7827,-1.18527 13.4668,-3.55664 3.72644,-2.37138 6.7751,-5.69572 9.14648,-9.97266 l 0.38086,0 c 0.42346,4.27694 1.69324,7.51676 3.81055,9.71875 2.15964,2.20199 5.48398,3.30274 9.97265,3.30274 1.27038,0 2.37112,-0.0423 3.30274,-0.12696 0.97396,-0.0847 1.8855,-0.1913 2.73242,-0.31835 0.84691,-0.12704 1.69215,-0.29608 2.53906,-0.50782 0.84693,-0.21172 1.80073,-0.44514 2.85938,-0.69922 l 0,-9.65429 c -1.27039,0.25406 -2.58243,0.38086 -3.9375,0.38086 -1.18569,0 -2.15965,-0.21131 -2.92188,-0.63477 -0.71988,-0.4658 -1.29334,-1.12183 -1.7168,-1.96875 -0.38111,-0.88927 -0.65484,-1.96986 -0.82421,-3.24023 -0.12706,-1.27039 -0.19141,-2.70922 -0.19141,-4.31836 l 0,-25.02735 c 0,-4.02287 -0.61377,-7.55851 -1.8418,-10.60742 -1.22803,-3.04891 -3.0069,-5.61059 -5.33593,-7.68555 -2.32903,-2.1173 -5.16639,-3.70503 -8.51172,-4.76367 -3.34533,-1.05865 -7.15666,-1.58789 -11.4336,-1.58789 z m 119.22657,0 c -5.84375,0 -10.94696,0.88944 -15.3086,2.66797 -4.36164,1.77852 -7.98181,4.25569 -10.86133,7.43164 -2.87952,3.17595 -5.0407,6.94306 -6.48047,11.30469 -1.39741,4.31929 -2.0957,9.04215 -2.0957,14.16601 0,5.29325 0.74055,10.14094 2.22266,14.54493 1.48211,4.36163 3.66344,8.11054 6.54297,11.24414 2.92187,3.13361 6.52189,5.56851 10.79883,7.30468 4.27694,1.73619 9.20916,2.60352 14.79882,2.60352 5.8014,0 10.88447,-0.86733 15.2461,-2.60352 4.36163,-1.77853 8.00195,-4.23554 10.92382,-7.36914 2.92188,-3.17595 5.10321,-6.94501 6.54297,-11.30664 1.48211,-4.36163 2.22266,-9.16707 2.22266,-14.41797 0,-5.1662 -0.65602,-9.90922 -1.96875,-14.22851 -1.27037,-4.36164 -3.30282,-8.10859 -6.09766,-11.24219 -2.75248,-3.17595 -6.31023,-5.65312 -10.67187,-7.43164 -4.36164,-1.77853 -9.63195,-2.66797 -15.81445,-2.66797 z m -263.22266,1.26953 0,43.63867 c 0,3.72645 0.40245,7.19774 1.20703,10.41602 0.80457,3.2183 2.09451,6.0134 3.87305,8.38477 1.82086,2.32903 4.17125,4.17032 7.05078,5.52539 2.87953,1.35507 6.37291,2.0332 10.48047,2.0332 5.03917,0 9.37974,-1.18527 13.02148,-3.55664 3.6841,-2.37138 6.7126,-6.16254 9.08399,-11.37109 l 0.31836,0 c 0,0.93161 0.0201,2.07657 0.0625,3.43164 0.0847,1.35507 0.14901,2.70937 0.1914,4.06445 0.0847,1.35506 0.16925,2.60471 0.25391,3.74805 0.12699,1.10099 0.21151,1.9059 0.2539,2.41406 l 17.02344,0 c -0.0424,-0.55051 -0.10674,-1.37752 -0.1914,-2.47852 -0.0424,-1.14334 -0.10675,-2.41312 -0.19141,-3.81054 -0.0423,-1.43977 -0.0846,-2.94297 -0.12695,-4.50977 l 0,-4.57422 0,-53.35547 -17.84766,0 0,36.8418 c 0,2.92187 -0.3602,5.61034 -1.08008,8.06641 -0.67752,2.41371 -1.65149,4.51053 -2.92187,6.28906 -1.27038,1.73619 -2.79569,3.0905 -4.57422,4.06445 -1.73619,0.93162 -3.68411,1.39649 -5.84375,1.39649 -2.24434,0 -4.15,-0.44473 -5.7168,-1.33399 -1.52445,-0.88927 -2.77213,-2.11679 -3.74609,-3.68359 -0.97395,-1.60914 -1.6742,-3.51481 -2.09766,-5.7168 -0.42347,-2.24433 -0.63476,-4.69938 -0.63476,-7.36719 l 0,-38.55664 -17.84766,0 z m 263.47656,10.98828 c 5.08152,0 8.95526,1.84325 11.62305,5.52735 2.66779,3.6841 4.00195,9.61238 4.00195,17.78515 0,4.10756 -0.36019,7.64321 -1.08008,10.60743 -0.71988,2.96421 -1.77837,5.39912 -3.17578,7.30468 -1.39742,1.90557 -3.13402,3.32425 -5.20898,4.25586 -2.0326,0.88926 -4.36088,1.33399 -6.98633,1.33399 -2.28669,0 -4.3835,-0.44473 -6.28906,-1.33399 -1.90557,-0.93161 -3.53557,-2.35029 -4.89063,-4.25586 -1.35507,-1.90556 -2.41355,-4.34047 -3.17578,-7.30468 -0.71988,-2.96422 -1.08008,-6.49987 -1.08008,-10.60743 0,-8.08808 1.39854,-13.99621 4.19336,-17.72265 2.79484,-3.72645 6.81746,-5.58985 12.06836,-5.58985 z m -406.71289,25.91602 0,3.49414 c 0,2.15965 -0.36019,4.27662 -1.08008,6.35156 -0.71988,2.07496 -1.73611,3.91625 -3.04883,5.52539 -1.27038,1.5668 -2.83599,2.83854 -4.69921,3.8125 -1.86323,0.97397 -3.93793,1.46094 -6.22461,1.46094 -2.49842,0 -4.51071,-0.78475 -6.03516,-2.35156 -1.48211,-1.60914 -2.22266,-4.04405 -2.22266,-7.30469 0,-2.41371 0.38036,-4.31938 1.14258,-5.7168 0.76223,-1.39742 1.77844,-2.45589 3.04883,-3.17578 1.31272,-0.76222 2.81592,-1.24921 4.50977,-1.46093 1.73618,-0.25411 3.55732,-0.42315 5.46289,-0.50782 l 9.14648,-0.12695 z m 296.50781,0 0,3.49414 c 0,2.15965 -0.36019,4.27662 -1.08007,6.35156 -0.71989,2.07496 -1.73611,3.91625 -3.04883,5.52539 -1.27039,1.5668 -2.83795,2.83854 -4.70117,3.8125 -1.86323,0.97397 -3.93793,1.46094 -6.22461,1.46094 -2.49842,0 -4.51071,-0.78475 -6.03516,-2.35156 -1.48211,-1.60914 -2.22266,-4.04405 -2.22266,-7.30469 0,-2.41371 0.38036,-4.31938 1.14258,-5.7168 0.76223,-1.39742 1.77844,-2.45589 3.04883,-3.17578 1.31272,-0.76222 2.81787,-1.24921 4.51172,-1.46093 1.73619,-0.25411 3.55537,-0.42315 5.46094,-0.50782 l 9.14843,-0.12695 z"
         transform="matrix(0.51262093,0,0,0.51262093,103.68965,175.62254)"
         id="path5145"
         inkscape:connector-curvature="0" />
      <path
         id="path5922"
         transform="translate(55.484593,83.356002)"
         d="m 195.07812,506.41211 c -3.86391,0 -7.22836,0.55308 -10.09374,1.66016 -2.84368,1.08537 -5.19958,2.647 -7.06641,4.6875 -1.86684,2.01879 -3.26775,4.47228 -4.20117,7.35937 -0.91172,2.88709 -1.36719,6.1214 -1.36719,9.70313 0,3.45148 0.45547,6.63221 1.36719,9.54101 0.93342,2.90879 2.34583,5.42736 4.23437,7.55469 1.91026,2.10562 4.31972,3.75531 7.22852,4.94922 2.90879,1.1722 6.34785,1.75781 10.32031,1.75781 3.03904,0 5.6782,-0.36937 7.91406,-1.10742 2.25758,-0.75976 4.20007,-1.74727 5.82813,-2.96289 1.62805,-1.21562 2.98494,-2.61653 4.07031,-4.20117 1.08537,-1.58465 1.96379,-3.20181 2.63672,-4.85157 l -8.36914,-3.1582 c -0.41244,1.06367 -0.94253,2.11624 -1.59375,3.1582 -0.62952,1.04196 -1.43332,1.9759 -2.41016,2.80078 -0.95512,0.82489 -2.09577,1.49856 -3.41992,2.01954 -1.30245,0.49927 -2.85453,0.74804 -4.65625,0.74804 -2.38781,0 -4.43746,-0.4019 -6.15234,-1.20508 -1.69318,-0.80317 -3.0826,-1.92082 -4.16797,-3.35351 -1.08538,-1.43269 -1.88919,-3.13595 -2.41016,-5.11133 -0.49927,-1.99708 -0.75,-4.1903 -0.75,-6.57812 0,-2.40953 0.25073,-4.57976 0.75,-6.51172 0.52097,-1.95367 1.31329,-3.6244 2.37695,-5.01367 1.08538,-1.38929 2.4633,-2.45336 4.13477,-3.19141 1.67147,-0.75976 3.66949,-1.14063 5.99219,-1.14063 1.64976,0 3.12529,0.21819 4.42773,0.65235 1.30245,0.41244 2.43159,0.96551 3.38672,1.66015 0.97683,0.69464 1.77869,1.49845 2.4082,2.41016 0.62952,0.89001 1.09649,1.82199 1.40039,2.79883 l 8.4668,-2.31055 c -0.60781,-1.86684 -1.45369,-3.57205 -2.53906,-5.11328 -1.06367,-1.56293 -2.42055,-2.90832 -4.07031,-4.03711 -1.62806,-1.15049 -3.57251,-2.0404 -5.83008,-2.66992 -2.23586,-0.62951 -4.85008,-0.94336 -7.84571,-0.94336 z"
         style="font-style:normal;font-weight:normal;font-size:66.68521881px;line-height:125%;font-family:Sans;letter-spacing:0px;word-spacing:0px;fill:#3ca0d6;fill-opacity:1;stroke:none;stroke-width:1px;stroke-linecap:butt;stroke-linejoin:miter;stroke-opacity:1"
         inkscape:connector-curvature="0" />
      <path
         id="path5924"
         transform="translate(55.484593,83.356002)"
         d="m 175.625,515.85352 c -0.76904,1.29858 -1.40762,2.71731 -1.9082,4.26562 -0.91172,2.88709 -1.36719,6.1214 -1.36719,9.70313 0,3.45148 0.45547,6.63221 1.36719,9.54101 0.561,1.74824 1.29906,3.35241 2.20508,4.81836 l 12.17968,0 c -1.1409,-0.7167 -2.11602,-1.6062 -2.92187,-2.66992 -1.08538,-1.43269 -1.88919,-3.13595 -2.41016,-5.11133 -0.49927,-1.99708 -0.75,-4.1903 -0.75,-6.57812 0,-2.40953 0.25073,-4.57976 0.75,-6.51172 0.52097,-1.95367 1.31329,-3.6244 2.37695,-5.01367 0.76439,-0.97843 1.68124,-1.78794 2.73633,-2.44336 l -12.25781,0 z m 26.82031,0 c 0.2206,0.13588 0.43793,0.27499 0.64258,0.42382 0.97683,0.69464 1.77869,1.49845 2.4082,2.41016 0.62952,0.89001 1.09649,1.82199 1.40039,2.79883 l 8.4668,-2.31055 c -0.38221,-1.17395 -0.87034,-2.27708 -1.4414,-3.32226 l -11.47657,0 z m 5.13477,21.49023 c -0.41244,1.06367 -0.94253,2.11624 -1.59375,3.1582 -0.62952,1.04196 -1.43332,1.9759 -2.41016,2.80078 -0.36835,0.31813 -0.77402,0.60599 -1.19726,0.87891 l 11.69531,0 c 0.74248,-1.20763 1.36729,-2.43499 1.875,-3.67969 l -8.36914,-3.1582 z"
         style="font-style:normal;font-weight:normal;font-size:66.68521881px;line-height:125%;font-family:Sans;letter-spacing:0px;word-spacing:0px;fill:#ffffff;fill-opacity:1;stroke:none;stroke-width:1px;stroke-linecap:butt;stroke-linejoin:miter;stroke-opacity:1"
         inkscape:connector-curvature="0" />
      <path
         id="path5926"
         transform="translate(55.484593,83.356002)"
         d="m 172.63086,525.29688 c -0.17745,1.44496 -0.28125,2.94522 -0.28125,4.52539 0,1.70567 0.11328,3.34482 0.33594,4.91796 l 9.73828,0 c -0.26648,-1.53591 -0.40235,-3.1735 -0.40235,-4.91796 0,-1.61974 0.12205,-3.12146 0.34766,-4.52539 l -9.73828,0 z"
         style="font-style:normal;font-weight:normal;font-size:66.68521881px;line-height:125%;font-family:Sans;letter-spacing:0px;word-spacing:0px;fill:#cd0000;fill-opacity:1;stroke:none;stroke-width:1px;stroke-linecap:butt;stroke-linejoin:miter;stroke-opacity:1"
         inkscape:connector-curvature="0" />
    </g>
  </g>
  <g
     inkscape:groupmode="layer"
     id="layer5"
     inkscape:label="test"
     style="display:inline" />
  <g
     inkscape:groupmode="layer"
     id="layer3"
     inkscape:label="Graphic"
     style="display:inline">
    <g
       transform="matrix(1.9507592,0,0,1.9507592,-202.27353,-342.59728)"
       style="font-style:normal;font-weight:normal;font-size:66.68521881px;line-height:125%;font-family:Sans;letter-spacing:0px;word-spacing:0px;fill:#000000;fill-opacity:1;stroke:none;stroke-width:1px;stroke-linecap:butt;stroke-linejoin:miter;stroke-opacity:1"
       id="g5952">
      <path
         inkscape:connector-curvature="0"
         id="path4050"
         d="m 321.22465,438.93442 c -10.3849,0.10419 -21.846,3.93662 -38.0176,13.02148 -4.3854,-0.46086 -9.6076,-0.74219 -16.1894,-0.74219 -43.9312,0 -48.6656,31.81314 -97.4024,20.04102 52.679,25.89939 74.0739,-10.37891 113.707,-10.37891 3.4607,0 6.3931,0.13242 9.0293,0.32617 -29.6953,13.12189 -53.3844,43.42458 -100.2363,30.41016 42.679,21.97083 76.2714,-13.87301 127.2793,-12.87891 52.0283,1.01399 94.4484,19.95017 123.4902,13.63672 -35.7728,-2.43352 -52.6263,-11.07976 -67.0488,-19.38867 3.0253,-0.0388 6.312,-0.0345 9.9863,0.0371 52.0283,1.01399 115.1635,34.59304 154.5625,26.13672 -51.2796,-3.48841 -78.056,-23.83008 -108.9511,-36.08398 3.2867,-0.0985 6.8526,-0.13003 10.8183,-0.0527 52.0283,1.01399 64.8052,30.30814 108.1328,24.70898 -54.2462,-5.05075 -49.9776,-36.15624 -108.3671,-36.15624 -15.1912,0 -23.9842,2.48121 -30.4454,5.19531 -8.1822,-1.90386 -16.9379,-3.05274 -26.6992,-3.05274 -17.7186,0 -24.9892,3.4979 -31.9902,7.47657 -9.0397,-3.41594 -19.9352,-5.69141 -35.5098,-5.69141 -4.0932,0 -7.9959,0.45771 -11.7597,1.27148 -2.7311,-0.71422 -5.288,-1.44913 -7.9532,-2.14843 45.4434,-7.82283 66.1993,-1.08789 66.1993,-1.08789 -17.6786,-8.75 -29.2866,-14.73354 -42.6348,-14.59961 z m 5.0781,43.82812 c -1.0896,-0.0185 -2.2125,-0.0151 -3.373,0.0117 -32.2239,0.74368 -45.2033,23.73749 -80.5586,18.18164 39.3959,10.85915 30.3085,-6.54879 81.3164,-5.55469 52.0283,1.01399 46.972,18.68708 99.5,7.07032 -61.8955,2.44646 -63.1076,-19.13678 -96.8848,-19.70899 z"
         style="fill:url(#radialGradient4915);fill-opacity:1;fill-rule:evenodd;stroke:none;stroke-width:1px;stroke-linecap:butt;stroke-linejoin:miter;stroke-opacity:1" />
      <g
         id="g5094">
        <path
           id="rect4917"
           d="m 338.83795,236.90318 -76.4297,205.82225 c 16.8826,0.80589 18.9453,2.38477 18.9453,2.38477 0,0 18.9964,-12.94604 40.4941,-12.51758 24.6563,0.49137 47.4375,15.08008 47.4375,15.08008 0,0 8.5299,-2.2305 16.7442,-2.23047 9.964,-3e-5 23.4414,3.04883 23.4414,3.04883 0,0 12.4661,-5.56644 30.2695,-5.56641 1.0983,0 3.5858,-0.0499 5.8965,-0.0937 l 54.2598,-146.11913 a 85.902496,5.3571429 20.372195 0 1 -41.8789,-10.60352 85.902496,5.3571429 20.372195 0 1 -80.5293,-29.90429 85.902496,5.3571429 20.372195 0 1 -38.6504,-19.30078 z"
           style="opacity:1;fill:url(#linearGradient4960);fill-opacity:1;stroke:none;stroke-width:5;stroke-linecap:round;stroke-linejoin:miter;stroke-miterlimit:4;stroke-dasharray:none"
           inkscape:connector-curvature="0" />
        <path
           inkscape:connector-curvature="0"
           style="opacity:1;fill:url(#linearGradient4970);fill-opacity:1;stroke:none;stroke-width:5;stroke-linecap:round;stroke-linejoin:miter;stroke-miterlimit:4;stroke-dasharray:none"
           d="m 429.18965,240.3579 a 85.902496,28.214285 20.372195 0 0 -90.35127,-3.45403 85.902496,5.3571429 20.372195 0 0 38.64984,19.30058 85.902496,5.3571429 20.372195 0 0 80.5292,29.90406 85.902496,5.3571429 20.372195 0 0 41.87945,10.60353 85.902496,28.214285 20.372195 0 0 -70.70722,-56.35414 z"
           id="path4929" />
      </g>
    </g>
  </g>
</svg>
